<svg width="63" height="16" viewBox="0 0 63 16" fill="none" xmlns="http://www.w3.org/2000/svg">
<path d="M3.69583 11.776C2.99183 11.776 2.36249 11.6053 1.80783 11.264C1.25316 10.912 0.810495 10.4373 0.479828 9.83997C0.159828 9.24263 -0.00017184 8.57063 -0.00017184 7.82397C-0.00017184 7.0773 0.159828 6.4053 0.479828 5.80797C0.810495 5.21063 1.25316 4.73597 1.80783 4.38397C2.36249 4.03197 2.99183 3.85597 3.69583 3.85597C4.26116 3.85597 4.77316 3.97863 5.23183 4.22397C5.6905 4.45863 6.0585 4.7893 6.33583 5.21597C6.62383 5.63197 6.78383 6.1173 6.81583 6.67197V8.95997C6.78383 9.50397 6.62916 9.9893 6.35183 10.416C6.07449 10.8426 5.70649 11.1786 5.24783 11.424C4.78916 11.6586 4.27183 11.776 3.69583 11.776ZM3.93583 10.416C4.41583 10.416 4.83183 10.304 5.18383 10.08C5.5465 9.85597 5.82916 9.55197 6.03183 9.16797C6.2345 8.7733 6.33583 8.3253 6.33583 7.82397C6.33583 7.3013 6.22916 6.84797 6.01583 6.46397C5.81316 6.07997 5.5305 5.77597 5.16783 5.55197C4.81583 5.32797 4.39983 5.21597 3.91983 5.21597C3.43983 5.21597 3.0185 5.32797 2.65583 5.55197C2.29316 5.77597 2.00516 6.0853 1.79183 6.47997C1.58916 6.86397 1.48783 7.30663 1.48783 7.80797C1.48783 8.31997 1.58916 8.7733 1.79183 9.16797C2.00516 9.55197 2.29316 9.85597 2.65583 10.08C3.02916 10.304 3.45583 10.416 3.93583 10.416ZM7.69583 11.616H6.23983V9.56797L6.51183 7.71197L6.23983 5.87197V0.191966H7.69583V11.616ZM13.2643 11.776C12.5177 11.776 11.8457 11.6 11.2483 11.248C10.651 10.896 10.1763 10.4213 9.82433 9.82397C9.47233 9.21597 9.29633 8.53863 9.29633 7.79197C9.29633 7.05597 9.47233 6.39463 9.82433 5.80797C10.1763 5.21063 10.651 4.73597 11.2483 4.38397C11.8457 4.03197 12.5177 3.85597 13.2643 3.85597C14.0003 3.85597 14.667 4.03197 15.2643 4.38397C15.8723 4.7253 16.3523 5.19463 16.7043 5.79197C17.0563 6.3893 17.2323 7.05597 17.2323 7.79197C17.2323 8.53863 17.0563 9.21597 16.7043 9.82397C16.3523 10.4213 15.8723 10.896 15.2643 11.248C14.667 11.6 14.0003 11.776 13.2643 11.776ZM13.2643 10.384C13.7443 10.384 14.171 10.272 14.5443 10.048C14.9177 9.82397 15.211 9.51997 15.4243 9.13597C15.6377 8.7413 15.7443 8.2933 15.7443 7.79197C15.7443 7.3013 15.6323 6.86397 15.4083 6.47997C15.195 6.09597 14.9017 5.7973 14.5283 5.58397C14.1657 5.35997 13.7443 5.24797 13.2643 5.24797C12.7843 5.24797 12.3577 5.35997 11.9843 5.58397C11.611 5.7973 11.3177 6.09597 11.1043 6.47997C10.891 6.86397 10.7843 7.3013 10.7843 7.79197C10.7843 8.2933 10.891 8.7413 11.1043 9.13597C11.3177 9.51997 11.611 9.82397 11.9843 10.048C12.3577 10.272 12.7843 10.384 13.2643 10.384ZM18.8868 11.616V0.319966H21.3988V11.616H18.8868ZM20.8228 11.616V9.40797H26.4068V11.616H20.8228ZM31.3466 11.792C30.5039 11.792 29.7519 11.6213 29.0906 11.28C28.4399 10.928 27.9279 10.4426 27.5546 9.82397C27.1812 9.2053 26.9946 8.50663 26.9946 7.72797C26.9946 6.9493 27.1759 6.25597 27.5386 5.64797C27.9119 5.0293 28.4132 4.54397 29.0426 4.19197C29.6719 3.83997 30.3812 3.66397 31.1706 3.66397C31.9386 3.66397 32.6159 3.8293 33.2026 4.15997C33.7892 4.49063 34.2479 4.9493 34.5786 5.53597C34.9199 6.12263 35.0906 6.79463 35.0906 7.55197C35.0906 7.69063 35.0799 7.83997 35.0586 7.99997C35.0479 8.1493 35.0212 8.3253 34.9786 8.52797L28.2746 8.54397V6.86397L33.9386 6.84797L32.8826 7.55197C32.8719 7.10397 32.8026 6.73597 32.6746 6.44797C32.5466 6.1493 32.3546 5.9253 32.0986 5.77597C31.8532 5.61597 31.5492 5.53597 31.1866 5.53597C30.8026 5.53597 30.4666 5.62663 30.1786 5.80797C29.9012 5.97863 29.6826 6.22397 29.5226 6.54397C29.3732 6.86397 29.2986 7.2533 29.2986 7.71197C29.2986 8.17063 29.3786 8.5653 29.5386 8.89597C29.7092 9.21597 29.9439 9.46663 30.2426 9.64797C30.5519 9.81863 30.9146 9.90397 31.3306 9.90397C31.7146 9.90397 32.0612 9.83997 32.3706 9.71197C32.6799 9.5733 32.9519 9.37063 33.1866 9.10397L34.5306 10.448C34.1466 10.896 33.6826 11.232 33.1386 11.456C32.5946 11.68 31.9972 11.792 31.3466 11.792ZM39.5682 15.104C38.7149 15.104 37.9629 14.9546 37.3122 14.656C36.6722 14.368 36.1655 13.9573 35.7922 13.424L37.2962 11.92C37.5735 12.2506 37.8829 12.5013 38.2242 12.672C38.5762 12.8426 38.9975 12.928 39.4882 12.928C40.0962 12.928 40.5709 12.7786 40.9122 12.48C41.2642 12.1813 41.4402 11.76 41.4402 11.216V9.23197L41.8562 7.53597L41.4882 5.83997V3.83997H43.8882V11.152C43.8882 11.952 43.7015 12.6453 43.3282 13.232C42.9549 13.8186 42.4429 14.2773 41.7922 14.608C41.1415 14.9386 40.4002 15.104 39.5682 15.104ZM39.4562 11.376C38.7415 11.376 38.1069 11.2053 37.5522 10.864C36.9975 10.5226 36.5602 10.0586 36.2402 9.47197C35.9202 8.8853 35.7602 8.23463 35.7602 7.51997C35.7602 6.79463 35.9202 6.14397 36.2402 5.56797C36.5602 4.9813 36.9975 4.52263 37.5522 4.19197C38.1069 3.85063 38.7415 3.67997 39.4562 3.67997C39.9895 3.67997 40.4642 3.7813 40.8802 3.98397C41.3069 4.17597 41.6482 4.4533 41.9042 4.81597C42.1709 5.16797 42.3202 5.57863 42.3522 6.04797V9.00797C42.3202 9.46663 42.1709 9.8773 41.9042 10.24C41.6482 10.592 41.3069 10.8693 40.8802 11.072C40.4535 11.2746 39.9789 11.376 39.4562 11.376ZM39.9202 9.19997C40.2615 9.19997 40.5549 9.1253 40.8002 8.97597C41.0562 8.82663 41.2482 8.6293 41.3762 8.38397C41.5149 8.12797 41.5842 7.83997 41.5842 7.51997C41.5842 7.19997 41.5149 6.91197 41.3762 6.65597C41.2482 6.39997 41.0562 6.1973 40.8002 6.04797C40.5549 5.89863 40.2615 5.82397 39.9202 5.82397C39.5895 5.82397 39.2962 5.89863 39.0402 6.04797C38.7842 6.1973 38.5869 6.39997 38.4482 6.65597C38.3095 6.91197 38.2402 7.19997 38.2402 7.51997C38.2402 7.81863 38.3095 8.1013 38.4482 8.36797C38.5869 8.62397 38.7789 8.82663 39.0242 8.97597C39.2802 9.1253 39.5789 9.19997 39.9202 9.19997ZM48.864 11.776C48.1493 11.776 47.5093 11.6 46.944 11.248C46.3893 10.896 45.9466 10.416 45.616 9.80797C45.296 9.19997 45.136 8.50663 45.136 7.72797C45.136 6.9493 45.296 6.25597 45.616 5.64797C45.9466 5.03997 46.3893 4.55997 46.944 4.20797C47.5093 3.85597 48.1493 3.67997 48.864 3.67997C49.3866 3.67997 49.856 3.7813 50.272 3.98397C50.6986 4.18663 51.0453 4.4693 51.312 4.83197C51.5786 5.18397 51.728 5.5893 51.76 6.04797V9.40797C51.728 9.86663 51.5786 10.2773 51.312 10.64C51.056 10.992 50.7146 11.2693 50.288 11.472C49.8613 11.6746 49.3866 11.776 48.864 11.776ZM49.36 9.56797C49.8826 9.56797 50.304 9.3973 50.624 9.05597C50.944 8.70397 51.104 8.2613 51.104 7.72797C51.104 7.3653 51.0293 7.0453 50.88 6.76797C50.7413 6.49063 50.5386 6.2773 50.272 6.12797C50.016 5.96797 49.7173 5.88797 49.376 5.88797C49.0346 5.88797 48.7306 5.96797 48.464 6.12797C48.208 6.2773 48 6.49063 47.84 6.76797C47.6906 7.0453 47.616 7.3653 47.616 7.72797C47.616 8.07997 47.6906 8.39463 47.84 8.67197C47.9893 8.9493 48.1973 9.16797 48.464 9.32797C48.7306 9.48797 49.0293 9.56797 49.36 9.56797ZM51.008 11.616V9.51997L51.376 7.63197L51.008 5.74397V3.83997H53.408V11.616H51.008ZM55.1316 11.616V-3.33786e-05H57.5796V11.616H55.1316Z" fill="white"/>
<path d="M60.8395 11.792C60.4235 11.792 60.0768 11.648 59.7995 11.36C59.5221 11.072 59.3835 10.7253 59.3835 10.32C59.3835 9.8933 59.5221 9.5413 59.7995 9.26397C60.0768 8.97597 60.4235 8.83197 60.8395 8.83197C61.2661 8.83197 61.6128 8.97597 61.8795 9.26397C62.1568 9.5413 62.2955 9.8933 62.2955 10.32C62.2955 10.7253 62.1568 11.072 61.8795 11.36C61.6128 11.648 61.2661 11.792 60.8395 11.792Z" fill="#51B0FF"/>
</svg>
